<mxfile host="app.diagrams.net" modified="2023-03-15T20:58:49.369Z" agent="5.0 (Windows NT 10.0; Win64; x64) AppleWebKit/537.36 (KHTML, like Gecko) Chrome/111.0.0.0 Safari/537.36" etag="Jm4Ga-4E-mOwriiFaRHx" version="21.0.6" type="github">
  <diagram name="PÃ¡gina-1" id="JKRoU0Jq6BWxhCoTfkTU">
    <mxGraphModel dx="1674" dy="796" grid="1" gridSize="10" guides="1" tooltips="1" connect="1" arrows="1" fold="1" page="1" pageScale="1" pageWidth="827" pageHeight="1169" math="0" shadow="0">
      <root>
        <mxCell id="0" />
        <mxCell id="1" parent="0" />
        <mxCell id="7jdfbUcg5T-vVeWTYSLP-1" value="Articulos" style="swimlane;fontStyle=1;align=center;verticalAlign=top;childLayout=stackLayout;horizontal=1;startSize=26;horizontalStack=0;resizeParent=1;resizeParentMax=0;resizeLast=0;collapsible=1;marginBottom=0;whiteSpace=wrap;html=1;" parent="1" vertex="1">
          <mxGeometry x="210" y="250" width="160" height="180" as="geometry" />
        </mxCell>
        <mxCell id="7jdfbUcg5T-vVeWTYSLP-5" value="" style="endArrow=none;html=1;edgeStyle=orthogonalEdgeStyle;rounded=0;" parent="7jdfbUcg5T-vVeWTYSLP-1" edge="1">
          <mxGeometry relative="1" as="geometry">
            <mxPoint x="160" y="70" as="sourcePoint" />
            <mxPoint x="380" y="70" as="targetPoint" />
          </mxGeometry>
        </mxCell>
        <mxCell id="7jdfbUcg5T-vVeWTYSLP-6" value="1..*" style="edgeLabel;resizable=0;html=1;align=left;verticalAlign=bottom;" parent="7jdfbUcg5T-vVeWTYSLP-5" connectable="0" vertex="1">
          <mxGeometry x="-1" relative="1" as="geometry" />
        </mxCell>
        <mxCell id="7jdfbUcg5T-vVeWTYSLP-7" value="1" style="edgeLabel;resizable=0;html=1;align=right;verticalAlign=bottom;" parent="7jdfbUcg5T-vVeWTYSLP-5" connectable="0" vertex="1">
          <mxGeometry x="1" relative="1" as="geometry" />
        </mxCell>
        <mxCell id="7jdfbUcg5T-vVeWTYSLP-2" value="+Id_Articulo:Long&lt;br&gt;+Nombre:string&lt;br&gt;+Marca:string&lt;br&gt;+Cantidad:int&lt;br&gt;+Proveedor:string&lt;br&gt;+Descripcion:string" style="text;strokeColor=none;fillColor=#99CCFF;align=left;verticalAlign=top;spacingLeft=4;spacingRight=4;overflow=hidden;rotatable=0;points=[[0,0.5],[1,0.5]];portConstraint=eastwest;whiteSpace=wrap;html=1;" parent="7jdfbUcg5T-vVeWTYSLP-1" vertex="1">
          <mxGeometry y="26" width="160" height="94" as="geometry" />
        </mxCell>
        <mxCell id="7jdfbUcg5T-vVeWTYSLP-3" value="" style="line;strokeWidth=1;fillColor=none;align=left;verticalAlign=middle;spacingTop=-1;spacingLeft=3;spacingRight=3;rotatable=0;labelPosition=right;points=[];portConstraint=eastwest;strokeColor=inherit;" parent="7jdfbUcg5T-vVeWTYSLP-1" vertex="1">
          <mxGeometry y="120" width="160" height="8" as="geometry" />
        </mxCell>
        <mxCell id="7jdfbUcg5T-vVeWTYSLP-4" value="+ingresar()&lt;br&gt;+consultar()&lt;br&gt;+stock()" style="text;strokeColor=none;fillColor=none;align=left;verticalAlign=top;spacingLeft=4;spacingRight=4;overflow=hidden;rotatable=0;points=[[0,0.5],[1,0.5]];portConstraint=eastwest;whiteSpace=wrap;html=1;" parent="7jdfbUcg5T-vVeWTYSLP-1" vertex="1">
          <mxGeometry y="128" width="160" height="52" as="geometry" />
        </mxCell>
        <mxCell id="7jdfbUcg5T-vVeWTYSLP-8" value="Proveedores" style="swimlane;fontStyle=1;align=center;verticalAlign=top;childLayout=stackLayout;horizontal=1;startSize=26;horizontalStack=0;resizeParent=1;resizeParentMax=0;resizeLast=0;collapsible=1;marginBottom=0;whiteSpace=wrap;html=1;" parent="1" vertex="1">
          <mxGeometry x="600" y="280" width="160" height="170" as="geometry" />
        </mxCell>
        <mxCell id="7jdfbUcg5T-vVeWTYSLP-9" value="+idProveedores:Long&lt;br&gt;+telefono:string&lt;br&gt;+correo:string&lt;br&gt;+nombre:string&lt;br&gt;+dirreccion:string" style="text;strokeColor=none;fillColor=#99CCFF;align=left;verticalAlign=top;spacingLeft=4;spacingRight=4;overflow=hidden;rotatable=0;points=[[0,0.5],[1,0.5]];portConstraint=eastwest;whiteSpace=wrap;html=1;" parent="7jdfbUcg5T-vVeWTYSLP-8" vertex="1">
          <mxGeometry y="26" width="160" height="84" as="geometry" />
        </mxCell>
        <mxCell id="7jdfbUcg5T-vVeWTYSLP-10" value="" style="line;strokeWidth=1;fillColor=none;align=left;verticalAlign=middle;spacingTop=-1;spacingLeft=3;spacingRight=3;rotatable=0;labelPosition=right;points=[];portConstraint=eastwest;strokeColor=inherit;" parent="7jdfbUcg5T-vVeWTYSLP-8" vertex="1">
          <mxGeometry y="110" width="160" height="8" as="geometry" />
        </mxCell>
        <mxCell id="7jdfbUcg5T-vVeWTYSLP-11" value="+Consultar()&lt;br&gt;+eliminar()&lt;br&gt;+Modificar()" style="text;strokeColor=none;fillColor=none;align=left;verticalAlign=top;spacingLeft=4;spacingRight=4;overflow=hidden;rotatable=0;points=[[0,0.5],[1,0.5]];portConstraint=eastwest;whiteSpace=wrap;html=1;" parent="7jdfbUcg5T-vVeWTYSLP-8" vertex="1">
          <mxGeometry y="118" width="160" height="52" as="geometry" />
        </mxCell>
        <mxCell id="7jdfbUcg5T-vVeWTYSLP-12" value="" style="endArrow=none;html=1;edgeStyle=orthogonalEdgeStyle;rounded=0;entryX=0.5;entryY=0;entryDx=0;entryDy=0;entryPerimeter=0;" parent="1" source="7jdfbUcg5T-vVeWTYSLP-4" target="7jdfbUcg5T-vVeWTYSLP-15" edge="1">
          <mxGeometry relative="1" as="geometry">
            <mxPoint x="360" y="600" as="sourcePoint" />
            <mxPoint x="420" y="620" as="targetPoint" />
          </mxGeometry>
        </mxCell>
        <mxCell id="7jdfbUcg5T-vVeWTYSLP-13" value="1" style="edgeLabel;resizable=0;html=1;align=left;verticalAlign=bottom;" parent="7jdfbUcg5T-vVeWTYSLP-12" connectable="0" vertex="1">
          <mxGeometry x="-1" relative="1" as="geometry" />
        </mxCell>
        <mxCell id="7jdfbUcg5T-vVeWTYSLP-14" value="1..*" style="edgeLabel;resizable=0;html=1;align=right;verticalAlign=bottom;" parent="7jdfbUcg5T-vVeWTYSLP-12" connectable="0" vertex="1">
          <mxGeometry x="1" relative="1" as="geometry" />
        </mxCell>
        <mxCell id="7jdfbUcg5T-vVeWTYSLP-15" value="Ventas" style="swimlane;fontStyle=1;align=center;verticalAlign=top;childLayout=stackLayout;horizontal=1;startSize=26;horizontalStack=0;resizeParent=1;resizeParentMax=0;resizeLast=0;collapsible=1;marginBottom=0;whiteSpace=wrap;html=1;fillColor=#FFFFFF;" parent="1" vertex="1">
          <mxGeometry x="350" y="630" width="160" height="164" as="geometry" />
        </mxCell>
        <mxCell id="7jdfbUcg5T-vVeWTYSLP-16" value="+idventa:Long&lt;br&gt;+idArticulo:Long&lt;br&gt;+fecha:string&lt;br&gt;+precio:int&lt;br&gt;+idcliente:long&lt;br&gt;+total:double" style="text;strokeColor=none;fillColor=#99CCFF;align=left;verticalAlign=top;spacingLeft=4;spacingRight=4;overflow=hidden;rotatable=0;points=[[0,0.5],[1,0.5]];portConstraint=eastwest;whiteSpace=wrap;html=1;" parent="7jdfbUcg5T-vVeWTYSLP-15" vertex="1">
          <mxGeometry y="26" width="160" height="104" as="geometry" />
        </mxCell>
        <mxCell id="7jdfbUcg5T-vVeWTYSLP-17" value="" style="line;strokeWidth=1;fillColor=none;align=left;verticalAlign=middle;spacingTop=-1;spacingLeft=3;spacingRight=3;rotatable=0;labelPosition=right;points=[];portConstraint=eastwest;strokeColor=inherit;" parent="7jdfbUcg5T-vVeWTYSLP-15" vertex="1">
          <mxGeometry y="130" width="160" height="8" as="geometry" />
        </mxCell>
        <mxCell id="7jdfbUcg5T-vVeWTYSLP-18" value="+Recibo()" style="text;strokeColor=none;fillColor=none;align=left;verticalAlign=top;spacingLeft=4;spacingRight=4;overflow=hidden;rotatable=0;points=[[0,0.5],[1,0.5]];portConstraint=eastwest;whiteSpace=wrap;html=1;" parent="7jdfbUcg5T-vVeWTYSLP-15" vertex="1">
          <mxGeometry y="138" width="160" height="26" as="geometry" />
        </mxCell>
        <mxCell id="7jdfbUcg5T-vVeWTYSLP-27" value="" style="endArrow=none;html=1;edgeStyle=orthogonalEdgeStyle;rounded=0;exitX=0;exitY=0.5;exitDx=0;exitDy=0;entryX=0.5;entryY=0;entryDx=0;entryDy=0;" parent="1" source="7jdfbUcg5T-vVeWTYSLP-16" edge="1">
          <mxGeometry relative="1" as="geometry">
            <mxPoint x="140" y="794" as="sourcePoint" />
            <mxPoint x="240" y="870" as="targetPoint" />
          </mxGeometry>
        </mxCell>
        <mxCell id="7jdfbUcg5T-vVeWTYSLP-35" value="1..*" style="text;html=1;align=center;verticalAlign=middle;resizable=0;points=[];autosize=1;strokeColor=none;fillColor=none;" parent="1" vertex="1">
          <mxGeometry x="200" y="830" width="40" height="30" as="geometry" />
        </mxCell>
        <mxCell id="7jdfbUcg5T-vVeWTYSLP-38" value="Clientes" style="swimlane;fontStyle=1;align=center;verticalAlign=top;childLayout=stackLayout;horizontal=1;startSize=26;horizontalStack=0;resizeParent=1;resizeParentMax=0;resizeLast=0;collapsible=1;marginBottom=0;whiteSpace=wrap;html=1;" parent="1" vertex="1">
          <mxGeometry x="620" y="560" width="160" height="114" as="geometry" />
        </mxCell>
        <mxCell id="7jdfbUcg5T-vVeWTYSLP-39" value="+idcliente:long&lt;br&gt;+nombre:string&lt;br&gt;+informacion:string" style="text;strokeColor=none;fillColor=#99CCFF;align=left;verticalAlign=top;spacingLeft=4;spacingRight=4;overflow=hidden;rotatable=0;points=[[0,0.5],[1,0.5]];portConstraint=eastwest;whiteSpace=wrap;html=1;" parent="7jdfbUcg5T-vVeWTYSLP-38" vertex="1">
          <mxGeometry y="26" width="160" height="54" as="geometry" />
        </mxCell>
        <mxCell id="7jdfbUcg5T-vVeWTYSLP-40" value="" style="line;strokeWidth=1;fillColor=none;align=left;verticalAlign=middle;spacingTop=-1;spacingLeft=3;spacingRight=3;rotatable=0;labelPosition=right;points=[];portConstraint=eastwest;strokeColor=inherit;" parent="7jdfbUcg5T-vVeWTYSLP-38" vertex="1">
          <mxGeometry y="80" width="160" height="8" as="geometry" />
        </mxCell>
        <mxCell id="7jdfbUcg5T-vVeWTYSLP-41" value="+Consultar()" style="text;strokeColor=none;fillColor=none;align=left;verticalAlign=top;spacingLeft=4;spacingRight=4;overflow=hidden;rotatable=0;points=[[0,0.5],[1,0.5]];portConstraint=eastwest;whiteSpace=wrap;html=1;" parent="7jdfbUcg5T-vVeWTYSLP-38" vertex="1">
          <mxGeometry y="88" width="160" height="26" as="geometry" />
        </mxCell>
        <mxCell id="7jdfbUcg5T-vVeWTYSLP-42" value="" style="endArrow=none;html=1;edgeStyle=orthogonalEdgeStyle;rounded=0;exitX=1.019;exitY=-0.038;exitDx=0;exitDy=0;exitPerimeter=0;entryX=0;entryY=0.25;entryDx=0;entryDy=0;" parent="1" source="7jdfbUcg5T-vVeWTYSLP-16" target="7jdfbUcg5T-vVeWTYSLP-38" edge="1">
          <mxGeometry relative="1" as="geometry">
            <mxPoint x="570" y="700" as="sourcePoint" />
            <mxPoint x="730" y="700" as="targetPoint" />
          </mxGeometry>
        </mxCell>
        <mxCell id="7jdfbUcg5T-vVeWTYSLP-43" value="1..*" style="edgeLabel;resizable=0;html=1;align=left;verticalAlign=bottom;" parent="7jdfbUcg5T-vVeWTYSLP-42" connectable="0" vertex="1">
          <mxGeometry x="-1" relative="1" as="geometry" />
        </mxCell>
        <mxCell id="7jdfbUcg5T-vVeWTYSLP-44" value="1" style="edgeLabel;resizable=0;html=1;align=right;verticalAlign=bottom;" parent="7jdfbUcg5T-vVeWTYSLP-42" connectable="0" vertex="1">
          <mxGeometry x="1" relative="1" as="geometry" />
        </mxCell>
        <mxCell id="7jdfbUcg5T-vVeWTYSLP-45" value="Tipo de Pago" style="swimlane;fontStyle=1;align=center;verticalAlign=top;childLayout=stackLayout;horizontal=1;startSize=26;horizontalStack=0;resizeParent=1;resizeParentMax=0;resizeLast=0;collapsible=1;marginBottom=0;whiteSpace=wrap;html=1;fillColor=#FFFFFF;" parent="1" vertex="1">
          <mxGeometry x="380" y="1060" width="160" height="104" as="geometry" />
        </mxCell>
        <mxCell id="7jdfbUcg5T-vVeWTYSLP-46" value="+Tarjeta:long&lt;br&gt;+Efectivo:int" style="text;strokeColor=none;fillColor=#99CCFF;align=left;verticalAlign=top;spacingLeft=4;spacingRight=4;overflow=hidden;rotatable=0;points=[[0,0.5],[1,0.5]];portConstraint=eastwest;whiteSpace=wrap;html=1;" parent="7jdfbUcg5T-vVeWTYSLP-45" vertex="1">
          <mxGeometry y="26" width="160" height="44" as="geometry" />
        </mxCell>
        <mxCell id="7jdfbUcg5T-vVeWTYSLP-47" value="" style="line;strokeWidth=1;fillColor=none;align=left;verticalAlign=middle;spacingTop=-1;spacingLeft=3;spacingRight=3;rotatable=0;labelPosition=right;points=[];portConstraint=eastwest;strokeColor=inherit;" parent="7jdfbUcg5T-vVeWTYSLP-45" vertex="1">
          <mxGeometry y="70" width="160" height="8" as="geometry" />
        </mxCell>
        <mxCell id="7jdfbUcg5T-vVeWTYSLP-48" value="+paypal()" style="text;strokeColor=none;fillColor=none;align=left;verticalAlign=top;spacingLeft=4;spacingRight=4;overflow=hidden;rotatable=0;points=[[0,0.5],[1,0.5]];portConstraint=eastwest;whiteSpace=wrap;html=1;" parent="7jdfbUcg5T-vVeWTYSLP-45" vertex="1">
          <mxGeometry y="78" width="160" height="26" as="geometry" />
        </mxCell>
        <mxCell id="7jdfbUcg5T-vVeWTYSLP-52" value="" style="endArrow=none;html=1;edgeStyle=orthogonalEdgeStyle;rounded=0;exitX=0.769;exitY=1.077;exitDx=0;exitDy=0;exitPerimeter=0;entryX=-0.019;entryY=0.137;entryDx=0;entryDy=0;entryPerimeter=0;" parent="1" target="7jdfbUcg5T-vVeWTYSLP-45" edge="1">
          <mxGeometry relative="1" as="geometry">
            <mxPoint x="283.03999999999996" y="996.002" as="sourcePoint" />
            <mxPoint x="360" y="1070" as="targetPoint" />
            <Array as="points">
              <mxPoint x="283" y="1070" />
              <mxPoint x="377" y="1070" />
            </Array>
          </mxGeometry>
        </mxCell>
        <mxCell id="7jdfbUcg5T-vVeWTYSLP-55" value="1" style="text;html=1;align=center;verticalAlign=middle;resizable=0;points=[];autosize=1;strokeColor=none;fillColor=none;" parent="1" vertex="1">
          <mxGeometry x="285" y="995" width="30" height="30" as="geometry" />
        </mxCell>
        <mxCell id="7jdfbUcg5T-vVeWTYSLP-57" value="1..*" style="text;html=1;align=center;verticalAlign=middle;resizable=0;points=[];autosize=1;strokeColor=none;fillColor=none;" parent="1" vertex="1">
          <mxGeometry x="400" y="1030" width="40" height="30" as="geometry" />
        </mxCell>
        <mxCell id="7jdfbUcg5T-vVeWTYSLP-59" value="&lt;font style=&quot;font-size: 24px;&quot;&gt;MexFut&lt;/font&gt;" style="whiteSpace=wrap;html=1;fillColor=#99FFCC;" parent="1" vertex="1">
          <mxGeometry x="380" y="110" width="180" height="60" as="geometry" />
        </mxCell>
        <mxCell id="90_B1C9naAv4WzRl5q6w-1" value="MÃ¡quina" style="swimlane;fontStyle=1;align=center;verticalAlign=top;childLayout=stackLayout;horizontal=1;startSize=26;horizontalStack=0;resizeParent=1;resizeParentMax=0;resizeLast=0;collapsible=1;marginBottom=0;whiteSpace=wrap;html=1;" parent="1" vertex="1">
          <mxGeometry x="160" y="870" width="160" height="134" as="geometry" />
        </mxCell>
        <mxCell id="90_B1C9naAv4WzRl5q6w-2" value="+botones:string&lt;br&gt;+codigo:string&lt;br&gt;+aceptar:string&lt;br&gt;+cancelar:string" style="text;strokeColor=none;fillColor=#99CCFF;align=left;verticalAlign=top;spacingLeft=4;spacingRight=4;overflow=hidden;rotatable=0;points=[[0,0.5],[1,0.5]];portConstraint=eastwest;whiteSpace=wrap;html=1;" parent="90_B1C9naAv4WzRl5q6w-1" vertex="1">
          <mxGeometry y="26" width="160" height="74" as="geometry" />
        </mxCell>
        <mxCell id="90_B1C9naAv4WzRl5q6w-3" value="" style="line;strokeWidth=1;fillColor=none;align=left;verticalAlign=middle;spacingTop=-1;spacingLeft=3;spacingRight=3;rotatable=0;labelPosition=right;points=[];portConstraint=eastwest;strokeColor=inherit;" parent="90_B1C9naAv4WzRl5q6w-1" vertex="1">
          <mxGeometry y="100" width="160" height="8" as="geometry" />
        </mxCell>
        <mxCell id="90_B1C9naAv4WzRl5q6w-4" value="+Touch()" style="text;strokeColor=none;fillColor=none;align=left;verticalAlign=top;spacingLeft=4;spacingRight=4;overflow=hidden;rotatable=0;points=[[0,0.5],[1,0.5]];portConstraint=eastwest;whiteSpace=wrap;html=1;" parent="90_B1C9naAv4WzRl5q6w-1" vertex="1">
          <mxGeometry y="108" width="160" height="26" as="geometry" />
        </mxCell>
        <mxCell id="90_B1C9naAv4WzRl5q6w-5" value="Cliente" style="shape=umlActor;verticalLabelPosition=bottom;verticalAlign=top;html=1;" parent="1" vertex="1">
          <mxGeometry x="662.5" y="690" width="75" height="130" as="geometry" />
        </mxCell>
        <mxCell id="90_B1C9naAv4WzRl5q6w-6" value="Compra" style="endArrow=block;endSize=16;endFill=0;html=1;rounded=0;entryX=0.994;entryY=0.808;entryDx=0;entryDy=0;entryPerimeter=0;exitX=0.5;exitY=0.5;exitDx=0;exitDy=0;exitPerimeter=0;" parent="1" source="90_B1C9naAv4WzRl5q6w-5" target="7jdfbUcg5T-vVeWTYSLP-16" edge="1">
          <mxGeometry x="0.0024" width="160" relative="1" as="geometry">
            <mxPoint x="330" y="910" as="sourcePoint" />
            <mxPoint x="490" y="910" as="targetPoint" />
            <mxPoint as="offset" />
          </mxGeometry>
        </mxCell>
      </root>
    </mxGraphModel>
  </diagram>
</mxfile>
